<svg width="162" height="42" viewBox="0 0 162 42" fill="none" xmlns="http://www.w3.org/2000/svg">
<g clip-path="url(#clip0_5375_3693)">
<path d="M9.71183 31.3043C7.43106 36.9023 2.96921 40.0185 1.15954 40.6235C-0.15658 38.6802 -0.747339 33.6329 1.53095 28.035C3.81172 22.437 8.78207 18.617 10.4945 17.7058C11.2024 19.4961 11.9901 25.7064 9.70934 31.3043H9.71183ZM24.401 25.7015C24.401 33.2378 20.3031 39.0679 18.294 40.6062C15.5895 38.9641 12.187 33.2378 12.187 25.7015C12.187 18.1651 16.5716 11.5869 18.294 9.73982C20.1386 11.4832 24.401 18.1651 24.401 25.7015ZM39.8854 19.5504C43.5471 28.0177 42.5351 37.9542 41.0844 40.6161C37.3254 40.0284 30.1765 33.6946 26.5123 25.2274C22.8506 16.7601 23.7106 5.61113 24.6977 2.73438C27.5642 3.83816 36.2237 11.0831 39.8854 19.5479V19.5504Z" fill="#D6FCBF"/>
<path d="M59.191 22.4401C59.191 20.2943 58.9194 18.7435 58.3784 17.7879C57.8375 16.8323 56.8255 16.3557 55.3474 16.3557C54.8189 16.3557 54.2381 16.3952 53.6025 16.4742C52.9669 16.5532 52.4933 16.6174 52.1767 16.6693V33.2384H47.3809V13.3703C48.3056 13.1085 49.5146 12.8591 51.0077 12.6246C52.5008 12.39 54.0786 12.2714 55.7437 12.2714C57.1695 12.2714 58.3386 12.4542 59.2509 12.8221C60.1632 13.19 60.921 13.674 61.5292 14.2741C61.8208 14.0642 62.1897 13.8419 62.6384 13.6073C63.0871 13.3728 63.5906 13.1555 64.1439 12.9604C64.6973 12.7653 65.2856 12.5999 65.9088 12.469C66.5294 12.3381 67.1576 12.2739 67.7907 12.2739C69.401 12.2739 70.7295 12.5036 71.774 12.9604C72.8184 13.4197 73.636 14.0592 74.2317 14.884C74.8275 15.7087 75.2363 16.7039 75.4606 17.8669C75.6849 19.0324 75.7971 20.3066 75.7971 21.6943V33.2384H71.0012V22.4426C71.0012 20.2967 70.737 18.746 70.2086 17.7904C69.6801 16.8347 68.6631 16.3582 67.1576 16.3582C66.3898 16.3582 65.6645 16.4816 64.9765 16.731C64.2885 16.9804 63.775 17.2224 63.4311 17.457C63.6429 18.1114 63.7875 18.8053 63.8673 19.5386C63.947 20.272 63.9869 21.0573 63.9869 21.8944V33.2409H59.191V22.445V22.4401ZM98.5874 12.7036C96.4512 20.5041 93.971 27.5713 91.1493 33.9051C90.6209 35.083 90.0775 36.0904 89.5216 36.9275C88.9658 37.7646 88.3451 38.4585 87.6571 39.0092C86.9773 39.5546 86.1955 39.9616 85.3564 40.2068C84.5089 40.4562 83.5318 40.5797 82.4201 40.5797C81.6798 40.5797 80.9444 40.5006 80.2191 40.3451C79.4912 40.187 78.9428 40.0167 78.5714 39.8339L79.4439 36.0262C80.3985 36.3917 81.3408 36.5769 82.2705 36.5769C83.5168 36.5769 84.494 36.2831 85.1969 35.6929C85.8998 35.1027 86.518 34.194 87.0489 32.9643C85.5359 30.0851 84.0827 26.9441 82.6893 23.5414C81.2959 20.1387 80.0546 16.5261 78.9678 12.706H84.0802C84.3444 13.8049 84.6685 14.9976 85.0548 16.2791C85.4387 17.5607 85.8575 18.8645 86.3086 20.1856C86.7598 21.5067 87.2359 22.8228 87.7394 24.1316C88.2429 25.4403 88.7464 26.6577 89.2524 27.7837C90.095 25.4551 90.8826 22.9735 91.6205 20.3436C92.3558 17.7138 93.0263 15.168 93.632 12.706H98.5874V12.7036ZM102.232 13.3703C103.156 13.1085 104.358 12.8591 105.839 12.6246C107.319 12.39 108.957 12.2714 110.754 12.2714C112.444 12.2714 113.857 12.5011 114.994 12.9579C116.131 13.4172 117.036 14.0568 117.709 14.8815C118.382 15.7063 118.858 16.7014 119.134 17.8644C119.411 19.03 119.551 20.3041 119.551 21.6919V33.2359H114.755V22.4401C114.755 21.3412 114.682 20.4054 114.535 19.6325C114.391 18.862 114.152 18.2324 113.823 17.7484C113.491 17.2644 113.042 16.9113 112.474 16.6891C111.906 16.4668 111.213 16.3557 110.393 16.3557C109.784 16.3557 109.151 16.3952 108.491 16.4742C107.83 16.5532 107.342 16.6174 107.025 16.6693V33.2384H102.229V13.3703H102.232ZM125.179 7.28344L129.975 6.49819V12.7011H137.346V16.6668H129.975V25.0304C129.975 26.6799 130.239 27.8578 130.768 28.564C131.296 29.2702 132.193 29.6233 133.462 29.6233C134.335 29.6233 135.107 29.5319 135.78 29.3492C136.453 29.1665 136.989 28.9961 137.386 28.8381L138.178 32.6062C137.622 32.8408 136.897 33.0853 135.997 33.3322C135.097 33.5816 134.04 33.7051 132.827 33.7051C131.346 33.7051 130.112 33.51 129.12 33.1174C128.13 32.7248 127.343 32.1544 126.762 31.4086C126.181 30.6629 125.77 29.7591 125.533 28.6998C125.296 27.6405 125.177 26.428 125.177 25.0674V7.28344H125.179ZM141.985 33.2359V3.55477L146.78 2.76953V12.9382C147.309 12.7554 147.922 12.5974 148.622 12.4665C149.323 12.3357 150.016 12.2714 150.704 12.2714C152.369 12.2714 153.75 12.5011 154.847 12.9579C155.943 13.4172 156.821 14.0568 157.481 14.8815C158.142 15.7063 158.611 16.694 158.887 17.8447C159.164 18.9979 159.303 20.2794 159.303 21.6919V33.2359H154.508V22.4401C154.508 21.3412 154.435 20.4054 154.288 19.6325C154.144 18.862 153.904 18.2324 153.575 17.7484C153.244 17.2644 152.803 16.9113 152.247 16.6891C151.691 16.4668 151.005 16.3557 150.185 16.3557C149.552 16.3557 148.904 16.4224 148.244 16.5508C147.583 16.6816 147.094 16.8002 146.778 16.9039V33.2359H141.982H141.985Z" fill="#D6FCBF"/>
</g>
<defs>
<clipPath id="clip0_5375_3693">
<rect width="162" height="41.2845" fill="white"/>
</clipPath>
</defs>
</svg>
